<mxfile host="www.draw.io" modified="2020-01-26T23:10:50.593Z" agent="Mozilla/5.0 (Windows NT 10.0; Win64; x64) AppleWebKit/537.36 (KHTML, like Gecko) Chrome/79.0.3945.130 Safari/537.36" etag="liuBCV3e3YxxV2tI8WNF" version="12.5.8" type="github" pages="2">
  <diagram name="Main diagram" id="929967ad-93f9-6ef4-fab6-5d389245f69c">
    <mxGraphModel dx="2791.5" dy="1799" grid="1" gridSize="10" guides="1" tooltips="1" connect="1" arrows="1" fold="1" page="1" pageScale="1.5" pageWidth="1169" pageHeight="826" background="none" math="0" shadow="0">
      <root>
        <mxCell id="0" style=";html=1;"/>
        <mxCell id="1" style=";html=1;" parent="0"/>
        <mxCell id="KoNH0CNwUAHt0AgaoYmD-12" value="" style="rounded=0;whiteSpace=wrap;html=1;dashed=1;rotation=90;" parent="1" vertex="1">
          <mxGeometry x="-1130" y="-1170" width="820" height="740" as="geometry"/>
        </mxCell>
        <mxCell id="KoNH0CNwUAHt0AgaoYmD-14" value="Dedykowana aplikacja" style="text;html=1;strokeColor=none;fillColor=none;align=center;verticalAlign=middle;whiteSpace=wrap;rounded=0;dashed=1;" parent="1" vertex="1">
          <mxGeometry x="-810" y="-1200" width="180" height="20" as="geometry"/>
        </mxCell>
        <mxCell id="KoNH0CNwUAHt0AgaoYmD-15" value="Generowanie raportu analizy poziomu zalesienia" style="ellipse;whiteSpace=wrap;html=1;" parent="1" vertex="1">
          <mxGeometry x="-1040" y="-1150" width="135" height="90" as="geometry"/>
        </mxCell>
        <mxCell id="KoNH0CNwUAHt0AgaoYmD-16" value="Generowanie raportu analizy linii brzegowej" style="ellipse;whiteSpace=wrap;html=1;" parent="1" vertex="1">
          <mxGeometry x="-960" y="-1050" width="135" height="90" as="geometry"/>
        </mxCell>
        <mxCell id="KoNH0CNwUAHt0AgaoYmD-17" value="Generowanie raportu prognoz zdjęciowych linii brzegowej" style="ellipse;whiteSpace=wrap;html=1;" parent="1" vertex="1">
          <mxGeometry x="-1020" y="-940" width="135" height="90" as="geometry"/>
        </mxCell>
        <mxCell id="KoNH0CNwUAHt0AgaoYmD-18" value="Generowanie raportu prognozowego linii brzegowej" style="ellipse;whiteSpace=wrap;html=1;" parent="1" vertex="1">
          <mxGeometry x="-1060" y="-510" width="135" height="90" as="geometry"/>
        </mxCell>
        <mxCell id="KoNH0CNwUAHt0AgaoYmD-19" value="Generowanie dashboardu KPI" style="ellipse;whiteSpace=wrap;html=1;" parent="1" vertex="1">
          <mxGeometry x="-910" y="-860" width="135" height="90" as="geometry"/>
        </mxCell>
        <mxCell id="KoNH0CNwUAHt0AgaoYmD-20" value="Wyświetlenie spełnionych alertów" style="ellipse;whiteSpace=wrap;html=1;" parent="1" vertex="1">
          <mxGeometry x="-1010" y="-790" width="135" height="90" as="geometry"/>
        </mxCell>
        <mxCell id="KoNH0CNwUAHt0AgaoYmD-21" value="Wyświetlenie panelu alertów" style="ellipse;whiteSpace=wrap;html=1;" parent="1" vertex="1">
          <mxGeometry x="-895" y="-690" width="135" height="90" as="geometry"/>
        </mxCell>
        <mxCell id="KoNH0CNwUAHt0AgaoYmD-22" value="Użytkownik techniczny&lt;br&gt;" style="shape=umlActor;verticalLabelPosition=bottom;labelBackgroundColor=#ffffff;verticalAlign=top;html=1;outlineConnect=0;" parent="1" vertex="1">
          <mxGeometry x="-230" y="-870" width="30" height="60" as="geometry"/>
        </mxCell>
        <mxCell id="KoNH0CNwUAHt0AgaoYmD-24" value="Użytkownik" style="shape=umlActor;verticalLabelPosition=bottom;labelBackgroundColor=#ffffff;verticalAlign=top;html=1;outlineConnect=0;" parent="1" vertex="1">
          <mxGeometry x="-1180" y="-820" width="30" height="60" as="geometry"/>
        </mxCell>
        <mxCell id="KoNH0CNwUAHt0AgaoYmD-30" value="" style="edgeStyle=orthogonalEdgeStyle;rounded=0;orthogonalLoop=1;jettySize=auto;html=1;dashed=1;exitX=1;exitY=0.5;exitDx=0;exitDy=0;entryX=0;entryY=0.5;entryDx=0;entryDy=0;" parent="1" source="KoNH0CNwUAHt0AgaoYmD-26" target="KoNH0CNwUAHt0AgaoYmD-28" edge="1">
          <mxGeometry relative="1" as="geometry">
            <mxPoint x="-957.5000000000005" y="-650" as="targetPoint"/>
          </mxGeometry>
        </mxCell>
        <mxCell id="oLljnyBIysXPZ3oE8e6Y-10" value="&amp;lt;&amp;lt;extend&amp;gt;&amp;gt;" style="text;html=1;align=center;verticalAlign=middle;resizable=0;points=[];;labelBackgroundColor=#ffffff;" parent="KoNH0CNwUAHt0AgaoYmD-30" vertex="1" connectable="0">
          <mxGeometry x="-0.0526" y="-2" relative="1" as="geometry">
            <mxPoint as="offset"/>
          </mxGeometry>
        </mxCell>
        <mxCell id="KoNH0CNwUAHt0AgaoYmD-26" value="Dodanie nowego alertu/ostrzeżenia" style="ellipse;whiteSpace=wrap;html=1;" parent="1" vertex="1">
          <mxGeometry x="-1040" y="-625" width="135" height="90" as="geometry"/>
        </mxCell>
        <mxCell id="KoNH0CNwUAHt0AgaoYmD-27" value="Akceptacja rekomendacji użytkownika" style="ellipse;whiteSpace=wrap;html=1;" parent="1" vertex="1">
          <mxGeometry x="-517.5" y="-740" width="135" height="90" as="geometry"/>
        </mxCell>
        <mxCell id="KoNH0CNwUAHt0AgaoYmD-28" value="Dodanie nowego alertu bez konieczności akceptacji" style="ellipse;whiteSpace=wrap;html=1;" parent="1" vertex="1">
          <mxGeometry x="-525" y="-630" width="150" height="100" as="geometry"/>
        </mxCell>
        <mxCell id="KoNH0CNwUAHt0AgaoYmD-31" value="" style="endArrow=classic;html=1;exitX=1;exitY=0.3333333333333333;exitDx=0;exitDy=0;exitPerimeter=0;" parent="1" source="KoNH0CNwUAHt0AgaoYmD-24" target="KoNH0CNwUAHt0AgaoYmD-26" edge="1">
          <mxGeometry width="50" height="50" relative="1" as="geometry">
            <mxPoint x="-1200" y="-320" as="sourcePoint"/>
            <mxPoint x="-1150" y="-370" as="targetPoint"/>
          </mxGeometry>
        </mxCell>
        <mxCell id="KoNH0CNwUAHt0AgaoYmD-32" value="" style="endArrow=classic;html=1;exitX=0;exitY=0.3333333333333333;exitDx=0;exitDy=0;exitPerimeter=0;entryX=1;entryY=0;entryDx=0;entryDy=0;" parent="1" source="KoNH0CNwUAHt0AgaoYmD-22" target="KoNH0CNwUAHt0AgaoYmD-27" edge="1">
          <mxGeometry width="50" height="50" relative="1" as="geometry">
            <mxPoint x="-1200" y="-320" as="sourcePoint"/>
            <mxPoint x="-1150" y="-370" as="targetPoint"/>
          </mxGeometry>
        </mxCell>
        <mxCell id="KoNH0CNwUAHt0AgaoYmD-33" value="" style="endArrow=classic;html=1;entryX=1;entryY=0;entryDx=0;entryDy=0;" parent="1" target="KoNH0CNwUAHt0AgaoYmD-28" edge="1">
          <mxGeometry width="50" height="50" relative="1" as="geometry">
            <mxPoint x="-230" y="-850" as="sourcePoint"/>
            <mxPoint x="-392.2702922699136" y="-716.8198051533907" as="targetPoint"/>
          </mxGeometry>
        </mxCell>
        <mxCell id="KoNH0CNwUAHt0AgaoYmD-34" value="Odświeżanie źródła danych" style="ellipse;whiteSpace=wrap;html=1;" parent="1" vertex="1">
          <mxGeometry x="-517.5" y="-860" width="135" height="90" as="geometry"/>
        </mxCell>
        <mxCell id="KoNH0CNwUAHt0AgaoYmD-35" value="" style="endArrow=classic;html=1;entryX=1;entryY=0.5;entryDx=0;entryDy=0;" parent="1" target="KoNH0CNwUAHt0AgaoYmD-34" edge="1">
          <mxGeometry width="50" height="50" relative="1" as="geometry">
            <mxPoint x="-230" y="-850" as="sourcePoint"/>
            <mxPoint x="-1150" y="-370" as="targetPoint"/>
          </mxGeometry>
        </mxCell>
        <mxCell id="oLljnyBIysXPZ3oE8e6Y-1" value="" style="endArrow=classic;html=1;entryX=0;entryY=0.5;entryDx=0;entryDy=0;" parent="1" target="KoNH0CNwUAHt0AgaoYmD-20" edge="1">
          <mxGeometry width="50" height="50" relative="1" as="geometry">
            <mxPoint x="-1150" y="-800" as="sourcePoint"/>
            <mxPoint x="-994.4049538448289" y="-609.6558748353809" as="targetPoint"/>
          </mxGeometry>
        </mxCell>
        <mxCell id="oLljnyBIysXPZ3oE8e6Y-2" value="" style="endArrow=classic;html=1;entryX=0;entryY=0.5;entryDx=0;entryDy=0;" parent="1" target="KoNH0CNwUAHt0AgaoYmD-19" edge="1">
          <mxGeometry width="50" height="50" relative="1" as="geometry">
            <mxPoint x="-1150" y="-800" as="sourcePoint"/>
            <mxPoint x="-984.4049538448289" y="-599.6558748353809" as="targetPoint"/>
          </mxGeometry>
        </mxCell>
        <mxCell id="oLljnyBIysXPZ3oE8e6Y-3" value="" style="endArrow=classic;html=1;entryX=0;entryY=0.5;entryDx=0;entryDy=0;" parent="1" target="KoNH0CNwUAHt0AgaoYmD-17" edge="1">
          <mxGeometry width="50" height="50" relative="1" as="geometry">
            <mxPoint x="-1150" y="-800" as="sourcePoint"/>
            <mxPoint x="-974.4049538448289" y="-589.6558748353809" as="targetPoint"/>
          </mxGeometry>
        </mxCell>
        <mxCell id="oLljnyBIysXPZ3oE8e6Y-6" value="" style="endArrow=classic;html=1;entryX=0;entryY=0.5;entryDx=0;entryDy=0;" parent="1" target="KoNH0CNwUAHt0AgaoYmD-16" edge="1">
          <mxGeometry width="50" height="50" relative="1" as="geometry">
            <mxPoint x="-1150" y="-800" as="sourcePoint"/>
            <mxPoint x="-964.4049538448289" y="-579.6558748353809" as="targetPoint"/>
          </mxGeometry>
        </mxCell>
        <mxCell id="oLljnyBIysXPZ3oE8e6Y-7" value="" style="endArrow=classic;html=1;entryX=0;entryY=1;entryDx=0;entryDy=0;" parent="1" target="KoNH0CNwUAHt0AgaoYmD-15" edge="1">
          <mxGeometry width="50" height="50" relative="1" as="geometry">
            <mxPoint x="-1150" y="-800" as="sourcePoint"/>
            <mxPoint x="-954.4049538448289" y="-569.6558748353809" as="targetPoint"/>
          </mxGeometry>
        </mxCell>
        <mxCell id="oLljnyBIysXPZ3oE8e6Y-8" value="" style="endArrow=classic;html=1;entryX=0;entryY=0;entryDx=0;entryDy=0;" parent="1" target="KoNH0CNwUAHt0AgaoYmD-18" edge="1">
          <mxGeometry width="50" height="50" relative="1" as="geometry">
            <mxPoint x="-1150" y="-800" as="sourcePoint"/>
            <mxPoint x="-944.4049538448289" y="-559.6558748353809" as="targetPoint"/>
          </mxGeometry>
        </mxCell>
        <mxCell id="oLljnyBIysXPZ3oE8e6Y-9" value="" style="endArrow=classic;html=1;entryX=0;entryY=0.5;entryDx=0;entryDy=0;" parent="1" target="KoNH0CNwUAHt0AgaoYmD-21" edge="1">
          <mxGeometry width="50" height="50" relative="1" as="geometry">
            <mxPoint x="-1150" y="-800" as="sourcePoint"/>
            <mxPoint x="-934.4049538448289" y="-549.6558748353809" as="targetPoint"/>
          </mxGeometry>
        </mxCell>
        <mxCell id="oLljnyBIysXPZ3oE8e6Y-11" value="Generowanie raportu z danymi liczbowymi" style="ellipse;whiteSpace=wrap;html=1;" parent="1" vertex="1">
          <mxGeometry x="-770" y="-1160" width="140" height="60" as="geometry"/>
        </mxCell>
        <mxCell id="oLljnyBIysXPZ3oE8e6Y-13" value="Generowanie raportu zdjęciowego" style="ellipse;whiteSpace=wrap;html=1;" parent="1" vertex="1">
          <mxGeometry x="-775" y="-1050" width="140" height="60" as="geometry"/>
        </mxCell>
        <mxCell id="oLljnyBIysXPZ3oE8e6Y-15" value="" style="endArrow=classic;html=1;entryX=1;entryY=0.5;entryDx=0;entryDy=0;exitX=0;exitY=0;exitDx=0;exitDy=0;dashed=1;" parent="1" source="oLljnyBIysXPZ3oE8e6Y-13" target="KoNH0CNwUAHt0AgaoYmD-15" edge="1">
          <mxGeometry width="50" height="50" relative="1" as="geometry">
            <mxPoint x="-760" y="-900" as="sourcePoint"/>
            <mxPoint x="-710" y="-950" as="targetPoint"/>
          </mxGeometry>
        </mxCell>
        <mxCell id="oLljnyBIysXPZ3oE8e6Y-17" value="&amp;lt;&amp;lt;include&amp;gt;&amp;gt;" style="text;html=1;align=center;verticalAlign=middle;resizable=0;points=[];;labelBackgroundColor=#ffffff;" parent="oLljnyBIysXPZ3oE8e6Y-15" vertex="1" connectable="0">
          <mxGeometry x="-0.1736" relative="1" as="geometry">
            <mxPoint x="1" as="offset"/>
          </mxGeometry>
        </mxCell>
        <mxCell id="oLljnyBIysXPZ3oE8e6Y-16" value="" style="endArrow=classic;html=1;entryX=1;entryY=0.5;entryDx=0;entryDy=0;exitX=0;exitY=0.5;exitDx=0;exitDy=0;dashed=1;" parent="1" source="oLljnyBIysXPZ3oE8e6Y-11" target="KoNH0CNwUAHt0AgaoYmD-15" edge="1">
          <mxGeometry width="50" height="50" relative="1" as="geometry">
            <mxPoint x="-744.4974746830585" y="-1031.2132034355966" as="sourcePoint"/>
            <mxPoint x="-914.9480547009261" y="-1063.062126291667" as="targetPoint"/>
          </mxGeometry>
        </mxCell>
        <mxCell id="oLljnyBIysXPZ3oE8e6Y-18" value="&amp;lt;&amp;lt;include&amp;gt;&amp;gt;" style="text;html=1;align=center;verticalAlign=middle;resizable=0;points=[];;labelBackgroundColor=#ffffff;" parent="oLljnyBIysXPZ3oE8e6Y-16" vertex="1" connectable="0">
          <mxGeometry x="0.1532" y="3" relative="1" as="geometry">
            <mxPoint x="17.13" y="-7.33" as="offset"/>
          </mxGeometry>
        </mxCell>
        <mxCell id="oLljnyBIysXPZ3oE8e6Y-19" value="Przechodzenie do powiązanego raportu" style="ellipse;whiteSpace=wrap;html=1;" parent="1" vertex="1">
          <mxGeometry x="-760" y="-930" width="133.51" height="60" as="geometry"/>
        </mxCell>
        <mxCell id="oLljnyBIysXPZ3oE8e6Y-20" value="" style="endArrow=classic;html=1;entryX=1;entryY=0;entryDx=0;entryDy=0;exitX=0.041;exitY=0.683;exitDx=0;exitDy=0;dashed=1;exitPerimeter=0;" parent="1" source="oLljnyBIysXPZ3oE8e6Y-19" target="KoNH0CNwUAHt0AgaoYmD-19" edge="1">
          <mxGeometry width="50" height="50" relative="1" as="geometry">
            <mxPoint x="-721.49" y="-775" as="sourcePoint"/>
            <mxPoint x="-790.0000000000002" y="-867.96" as="targetPoint"/>
          </mxGeometry>
        </mxCell>
        <mxCell id="oLljnyBIysXPZ3oE8e6Y-21" value="&amp;lt;&amp;lt;include&amp;gt;&amp;gt;" style="text;html=1;align=center;verticalAlign=middle;resizable=0;points=[];;labelBackgroundColor=#ffffff;" parent="oLljnyBIysXPZ3oE8e6Y-20" vertex="1" connectable="0">
          <mxGeometry x="-0.1736" relative="1" as="geometry">
            <mxPoint x="1" y="8.29" as="offset"/>
          </mxGeometry>
        </mxCell>
        <mxCell id="oLljnyBIysXPZ3oE8e6Y-22" value="Wyświetlanie alertów/ostrzeżeń użytkowników" style="ellipse;whiteSpace=wrap;html=1;" parent="1" vertex="1">
          <mxGeometry x="-740" y="-780" width="133.51" height="60" as="geometry"/>
        </mxCell>
        <mxCell id="oLljnyBIysXPZ3oE8e6Y-23" value="Wyświetlanie systemowych alertów/ostrzeżeń" style="ellipse;whiteSpace=wrap;html=1;" parent="1" vertex="1">
          <mxGeometry x="-680" y="-675" width="133.51" height="60" as="geometry"/>
        </mxCell>
        <mxCell id="oLljnyBIysXPZ3oE8e6Y-28" value="" style="endArrow=classic;html=1;entryX=0;entryY=1;entryDx=0;entryDy=0;exitX=1;exitY=0;exitDx=0;exitDy=0;dashed=1;" parent="1" source="KoNH0CNwUAHt0AgaoYmD-21" target="oLljnyBIysXPZ3oE8e6Y-22" edge="1">
          <mxGeometry width="50" height="50" relative="1" as="geometry">
            <mxPoint x="-750" y="-890" as="sourcePoint"/>
            <mxPoint x="-784.9480547009066" y="-836.9378737083462" as="targetPoint"/>
          </mxGeometry>
        </mxCell>
        <mxCell id="oLljnyBIysXPZ3oE8e6Y-29" value="&amp;lt;&amp;lt;extend&amp;gt;&amp;gt;" style="text;html=1;align=center;verticalAlign=middle;resizable=0;points=[];;labelBackgroundColor=#ffffff;" parent="oLljnyBIysXPZ3oE8e6Y-28" vertex="1" connectable="0">
          <mxGeometry x="-0.1736" relative="1" as="geometry">
            <mxPoint x="5" y="-1.4700000000000006" as="offset"/>
          </mxGeometry>
        </mxCell>
        <mxCell id="oLljnyBIysXPZ3oE8e6Y-30" value="" style="endArrow=classic;html=1;entryX=0;entryY=0.5;entryDx=0;entryDy=0;exitX=1;exitY=0.5;exitDx=0;exitDy=0;dashed=1;" parent="1" source="KoNH0CNwUAHt0AgaoYmD-21" target="oLljnyBIysXPZ3oE8e6Y-23" edge="1">
          <mxGeometry width="50" height="50" relative="1" as="geometry">
            <mxPoint x="-769.9480547008961" y="-666.9378737083534" as="sourcePoint"/>
            <mxPoint x="-710.1787032735374" y="-718.6664985120283" as="targetPoint"/>
          </mxGeometry>
        </mxCell>
        <mxCell id="oLljnyBIysXPZ3oE8e6Y-31" value="&amp;lt;&amp;lt;extend&amp;gt;&amp;gt;" style="text;html=1;align=center;verticalAlign=middle;resizable=0;points=[];;labelBackgroundColor=#ffffff;" parent="oLljnyBIysXPZ3oE8e6Y-30" vertex="1" connectable="0">
          <mxGeometry x="-0.1736" relative="1" as="geometry">
            <mxPoint x="5" y="-1.4700000000000006" as="offset"/>
          </mxGeometry>
        </mxCell>
      </root>
    </mxGraphModel>
  </diagram>
  <diagram id="wUDtsWJiId6K6EeVZE9i" name="Alternative diagram">
    <mxGraphModel dx="3771" dy="3959" grid="1" gridSize="10" guides="1" tooltips="1" connect="1" arrows="1" fold="1" page="1" pageScale="1" pageWidth="850" pageHeight="1100" math="0" shadow="0">
      <root>
        <mxCell id="fzgI2RlwDscLZsqMx3vp-0"/>
        <mxCell id="fzgI2RlwDscLZsqMx3vp-1" parent="fzgI2RlwDscLZsqMx3vp-0"/>
        <mxCell id="fzgI2RlwDscLZsqMx3vp-2" value="" style="rounded=0;whiteSpace=wrap;html=1;dashed=1;rotation=90;" vertex="1" parent="fzgI2RlwDscLZsqMx3vp-1">
          <mxGeometry x="-2729.08" y="-2986.38" width="1428.15" height="832.31" as="geometry"/>
        </mxCell>
        <mxCell id="fzgI2RlwDscLZsqMx3vp-11" value="Użytkownik techniczny&lt;br&gt;" style="shape=umlActor;verticalLabelPosition=bottom;labelBackgroundColor=#ffffff;verticalAlign=top;html=1;outlineConnect=0;" vertex="1" parent="fzgI2RlwDscLZsqMx3vp-1">
          <mxGeometry x="-1540" y="-2750" width="30" height="60" as="geometry"/>
        </mxCell>
        <mxCell id="fzgI2RlwDscLZsqMx3vp-12" value="Użytkownik" style="shape=umlActor;verticalLabelPosition=bottom;labelBackgroundColor=#ffffff;verticalAlign=top;html=1;outlineConnect=0;" vertex="1" parent="fzgI2RlwDscLZsqMx3vp-1">
          <mxGeometry x="-2520" y="-2750" width="30" height="60" as="geometry"/>
        </mxCell>
        <mxCell id="fzgI2RlwDscLZsqMx3vp-13" value="" style="edgeStyle=orthogonalEdgeStyle;rounded=0;orthogonalLoop=1;jettySize=auto;html=1;dashed=1;exitX=1;exitY=0.5;exitDx=0;exitDy=0;entryX=0;entryY=0.5;entryDx=0;entryDy=0;" edge="1" parent="fzgI2RlwDscLZsqMx3vp-1" source="AVZ5gGeBELypZyMCoIGj-0" target="teUg30KZs7jVTmNDIVNl-1">
          <mxGeometry relative="1" as="geometry">
            <mxPoint x="-1890" y="-1820" as="targetPoint"/>
          </mxGeometry>
        </mxCell>
        <mxCell id="fzgI2RlwDscLZsqMx3vp-14" value="&amp;lt;&amp;lt;extend&amp;gt;&amp;gt;" style="text;html=1;align=center;verticalAlign=middle;resizable=0;points=[];;labelBackgroundColor=#ffffff;" vertex="1" connectable="0" parent="fzgI2RlwDscLZsqMx3vp-13">
          <mxGeometry x="-0.0526" y="-2" relative="1" as="geometry">
            <mxPoint y="-6.85" as="offset"/>
          </mxGeometry>
        </mxCell>
        <mxCell id="fzgI2RlwDscLZsqMx3vp-32" value="" style="endArrow=classic;html=1;entryX=1;entryY=0.5;entryDx=0;entryDy=0;exitX=0;exitY=0;exitDx=0;exitDy=0;dashed=1;" edge="1" parent="fzgI2RlwDscLZsqMx3vp-1" source="fzgI2RlwDscLZsqMx3vp-31">
          <mxGeometry width="50" height="50" relative="1" as="geometry">
            <mxPoint x="-760" y="-900" as="sourcePoint"/>
            <mxPoint x="-905" y="-1105" as="targetPoint"/>
          </mxGeometry>
        </mxCell>
        <mxCell id="fzgI2RlwDscLZsqMx3vp-33" value="&amp;lt;&amp;lt;include&amp;gt;&amp;gt;" style="text;html=1;align=center;verticalAlign=middle;resizable=0;points=[];;labelBackgroundColor=#ffffff;" vertex="1" connectable="0" parent="fzgI2RlwDscLZsqMx3vp-32">
          <mxGeometry x="-0.1736" relative="1" as="geometry">
            <mxPoint x="1" as="offset"/>
          </mxGeometry>
        </mxCell>
        <mxCell id="fzgI2RlwDscLZsqMx3vp-34" value="" style="endArrow=classic;html=1;entryX=1;entryY=0.5;entryDx=0;entryDy=0;exitX=0;exitY=0.5;exitDx=0;exitDy=0;dashed=1;" edge="1" parent="fzgI2RlwDscLZsqMx3vp-1" source="fzgI2RlwDscLZsqMx3vp-30">
          <mxGeometry width="50" height="50" relative="1" as="geometry">
            <mxPoint x="-744.4974746830585" y="-1031.2132034355966" as="sourcePoint"/>
            <mxPoint x="-905" y="-1105" as="targetPoint"/>
          </mxGeometry>
        </mxCell>
        <mxCell id="fzgI2RlwDscLZsqMx3vp-35" value="&amp;lt;&amp;lt;include&amp;gt;&amp;gt;" style="text;html=1;align=center;verticalAlign=middle;resizable=0;points=[];;labelBackgroundColor=#ffffff;" vertex="1" connectable="0" parent="fzgI2RlwDscLZsqMx3vp-34">
          <mxGeometry x="0.1532" y="3" relative="1" as="geometry">
            <mxPoint x="17.13" y="-7.33" as="offset"/>
          </mxGeometry>
        </mxCell>
        <mxCell id="fzgI2RlwDscLZsqMx3vp-37" value="" style="endArrow=classic;html=1;entryX=1;entryY=0;entryDx=0;entryDy=0;exitX=0.041;exitY=0.683;exitDx=0;exitDy=0;dashed=1;exitPerimeter=0;" edge="1" parent="fzgI2RlwDscLZsqMx3vp-1" source="fzgI2RlwDscLZsqMx3vp-36">
          <mxGeometry width="50" height="50" relative="1" as="geometry">
            <mxPoint x="-721.49" y="-775" as="sourcePoint"/>
            <mxPoint x="-714.9480547009111" y="-881.9378737083434" as="targetPoint"/>
          </mxGeometry>
        </mxCell>
        <mxCell id="fzgI2RlwDscLZsqMx3vp-38" value="&amp;lt;&amp;lt;include&amp;gt;&amp;gt;" style="text;html=1;align=center;verticalAlign=middle;resizable=0;points=[];;labelBackgroundColor=#ffffff;" vertex="1" connectable="0" parent="fzgI2RlwDscLZsqMx3vp-37">
          <mxGeometry x="-0.1736" relative="1" as="geometry">
            <mxPoint x="1" y="8.29" as="offset"/>
          </mxGeometry>
        </mxCell>
        <mxCell id="fzgI2RlwDscLZsqMx3vp-43" value="" style="endArrow=classic;html=1;entryX=0;entryY=0.5;entryDx=0;entryDy=0;exitX=1;exitY=0.5;exitDx=0;exitDy=0;dashed=1;" edge="1" parent="fzgI2RlwDscLZsqMx3vp-1" target="fzgI2RlwDscLZsqMx3vp-40">
          <mxGeometry width="50" height="50" relative="1" as="geometry">
            <mxPoint x="-775" y="-420" as="sourcePoint"/>
            <mxPoint x="-725.1787032735374" y="-493.6664985120283" as="targetPoint"/>
          </mxGeometry>
        </mxCell>
        <mxCell id="fzgI2RlwDscLZsqMx3vp-45" value="&lt;span style=&quot;white-space: normal&quot;&gt;Generowanie raportu analizy poziomu zalesienia&lt;/span&gt;" style="rounded=1;whiteSpace=wrap;html=1;fillColor=#d5e8d4;strokeColor=#82b366;" vertex="1" parent="fzgI2RlwDscLZsqMx3vp-1">
          <mxGeometry x="-2310" y="-3050" width="120" height="60" as="geometry"/>
        </mxCell>
        <mxCell id="fzgI2RlwDscLZsqMx3vp-46" value="&lt;span style=&quot;white-space: normal&quot;&gt;Generowanie raportu analizy linii brzegowej&lt;/span&gt;" style="rounded=1;whiteSpace=wrap;html=1;fillColor=#d5e8d4;strokeColor=#82b366;" vertex="1" parent="fzgI2RlwDscLZsqMx3vp-1">
          <mxGeometry x="-2310" y="-2949.92" width="120" height="60" as="geometry"/>
        </mxCell>
        <mxCell id="fzgI2RlwDscLZsqMx3vp-47" value="&lt;span style=&quot;white-space: normal&quot;&gt;Generowanie raportu prognoz zdjęciowych linii brzegowej&lt;/span&gt;" style="rounded=1;whiteSpace=wrap;html=1;fillColor=#d5e8d4;strokeColor=#82b366;" vertex="1" parent="fzgI2RlwDscLZsqMx3vp-1">
          <mxGeometry x="-2310" y="-2850" width="120" height="60" as="geometry"/>
        </mxCell>
        <mxCell id="fzgI2RlwDscLZsqMx3vp-51" value="&lt;span style=&quot;white-space: normal&quot;&gt;Generowanie raportu z danymi liczbowymi&lt;/span&gt;" style="rounded=1;whiteSpace=wrap;html=1;dashed=1;fillColor=#d5e8d4;strokeColor=#82b366;" vertex="1" parent="fzgI2RlwDscLZsqMx3vp-1">
          <mxGeometry x="-2030" y="-3090.07" width="120" height="60" as="geometry"/>
        </mxCell>
        <mxCell id="fzgI2RlwDscLZsqMx3vp-52" value="&lt;span style=&quot;white-space: normal&quot;&gt;Generowanie raportu zdjęciowego&lt;/span&gt;" style="rounded=1;whiteSpace=wrap;html=1;dashed=1;fillColor=#d5e8d4;strokeColor=#82b366;" vertex="1" parent="fzgI2RlwDscLZsqMx3vp-1">
          <mxGeometry x="-2030" y="-3009.92" width="120" height="60" as="geometry"/>
        </mxCell>
        <mxCell id="fzgI2RlwDscLZsqMx3vp-54" value="" style="endArrow=none;dashed=1;html=1;exitX=1;exitY=0.75;exitDx=0;exitDy=0;entryX=0;entryY=0.5;entryDx=0;entryDy=0;startArrow=classic;startFill=1;" edge="1" parent="fzgI2RlwDscLZsqMx3vp-1" source="fzgI2RlwDscLZsqMx3vp-45" target="fzgI2RlwDscLZsqMx3vp-52">
          <mxGeometry width="50" height="50" relative="1" as="geometry">
            <mxPoint x="-1870" y="-2960" as="sourcePoint"/>
            <mxPoint x="-1820" y="-3010" as="targetPoint"/>
            <Array as="points">
              <mxPoint x="-2150" y="-3005"/>
              <mxPoint x="-2150" y="-2980"/>
            </Array>
          </mxGeometry>
        </mxCell>
        <mxCell id="IsUwps6RCUjrcTT9Gfew-1" value="&amp;lt;&amp;lt;include&amp;gt;&amp;gt;" style="text;html=1;align=center;verticalAlign=middle;resizable=0;points=[];labelBackgroundColor=#ffffff;" vertex="1" connectable="0" parent="fzgI2RlwDscLZsqMx3vp-54">
          <mxGeometry x="0.6127" y="-1" relative="1" as="geometry">
            <mxPoint x="-24.41" y="-0.98" as="offset"/>
          </mxGeometry>
        </mxCell>
        <mxCell id="fzgI2RlwDscLZsqMx3vp-55" value="&lt;span style=&quot;white-space: normal&quot;&gt;Wyświetlenie spełnionych alertów&lt;/span&gt;" style="rounded=1;whiteSpace=wrap;html=1;fillColor=#dae8fc;strokeColor=#6c8ebf;" vertex="1" parent="fzgI2RlwDscLZsqMx3vp-1">
          <mxGeometry x="-2310" y="-2650" width="120" height="60" as="geometry"/>
        </mxCell>
        <mxCell id="fzgI2RlwDscLZsqMx3vp-58" value="" style="ellipse;whiteSpace=wrap;html=1;" vertex="1" parent="fzgI2RlwDscLZsqMx3vp-1">
          <mxGeometry x="-2380" y="-3025" width="10" height="10" as="geometry"/>
        </mxCell>
        <mxCell id="fzgI2RlwDscLZsqMx3vp-60" value="" style="ellipse;whiteSpace=wrap;html=1;" vertex="1" parent="fzgI2RlwDscLZsqMx3vp-1">
          <mxGeometry x="-2380" y="-2924.92" width="10" height="10" as="geometry"/>
        </mxCell>
        <mxCell id="fzgI2RlwDscLZsqMx3vp-61" value="" style="ellipse;whiteSpace=wrap;html=1;" vertex="1" parent="fzgI2RlwDscLZsqMx3vp-1">
          <mxGeometry x="-2380" y="-2825" width="10" height="10" as="geometry"/>
        </mxCell>
        <mxCell id="fzgI2RlwDscLZsqMx3vp-63" value="" style="ellipse;whiteSpace=wrap;html=1;" vertex="1" parent="fzgI2RlwDscLZsqMx3vp-1">
          <mxGeometry x="-2380" y="-2725" width="10" height="10" as="geometry"/>
        </mxCell>
        <mxCell id="fzgI2RlwDscLZsqMx3vp-64" value="" style="ellipse;whiteSpace=wrap;html=1;" vertex="1" parent="fzgI2RlwDscLZsqMx3vp-1">
          <mxGeometry x="-2380" y="-2625" width="10" height="10" as="geometry"/>
        </mxCell>
        <mxCell id="ZSnt32bxWwyjnuLJXpBT-1" value="" style="endArrow=none;dashed=1;html=1;strokeColor=#000000;exitX=1;exitY=0.25;exitDx=0;exitDy=0;entryX=0;entryY=0.5;entryDx=0;entryDy=0;startArrow=classic;startFill=1;" edge="1" parent="fzgI2RlwDscLZsqMx3vp-1" source="fzgI2RlwDscLZsqMx3vp-45" target="fzgI2RlwDscLZsqMx3vp-51">
          <mxGeometry width="50" height="50" relative="1" as="geometry">
            <mxPoint x="-2240" y="-3090" as="sourcePoint"/>
            <mxPoint x="-2190" y="-3140" as="targetPoint"/>
            <Array as="points">
              <mxPoint x="-2150" y="-3035"/>
              <mxPoint x="-2150" y="-3060"/>
            </Array>
          </mxGeometry>
        </mxCell>
        <mxCell id="IsUwps6RCUjrcTT9Gfew-0" value="&amp;lt;&amp;lt;include&amp;gt;&amp;gt;" style="text;html=1;align=center;verticalAlign=middle;resizable=0;points=[];labelBackgroundColor=#ffffff;" vertex="1" connectable="0" parent="ZSnt32bxWwyjnuLJXpBT-1">
          <mxGeometry x="0.5491" y="-1" relative="1" as="geometry">
            <mxPoint x="-18.53" y="-1.02" as="offset"/>
          </mxGeometry>
        </mxCell>
        <mxCell id="QmS3Il2oa9-KOORidhjK-0" value="&lt;span style=&quot;white-space: normal&quot;&gt;Generowanie dashboardu KPI&lt;/span&gt;" style="rounded=1;whiteSpace=wrap;html=1;fillColor=#d5e8d4;strokeColor=#82b366;" vertex="1" parent="fzgI2RlwDscLZsqMx3vp-1">
          <mxGeometry x="-2310" y="-2750" width="120" height="60" as="geometry"/>
        </mxCell>
        <mxCell id="w1fDr6GUNuQVsTf44wTi-0" value="&lt;span style=&quot;white-space: normal&quot;&gt;Przechodzenie do powiązanego raportu&lt;/span&gt;" style="rounded=1;whiteSpace=wrap;html=1;dashed=1;fillColor=#d5e8d4;strokeColor=#82b366;" vertex="1" parent="fzgI2RlwDscLZsqMx3vp-1">
          <mxGeometry x="-2030" y="-2750" width="120" height="60" as="geometry"/>
        </mxCell>
        <mxCell id="w1fDr6GUNuQVsTf44wTi-1" value="" style="endArrow=none;dashed=1;html=1;strokeColor=#000000;exitX=1;exitY=0.5;exitDx=0;exitDy=0;entryX=0;entryY=0.5;entryDx=0;entryDy=0;startArrow=classic;startFill=1;" edge="1" parent="fzgI2RlwDscLZsqMx3vp-1" source="QmS3Il2oa9-KOORidhjK-0" target="w1fDr6GUNuQVsTf44wTi-0">
          <mxGeometry width="50" height="50" relative="1" as="geometry">
            <mxPoint x="-2150" y="-2580" as="sourcePoint"/>
            <mxPoint x="-2100" y="-2630" as="targetPoint"/>
          </mxGeometry>
        </mxCell>
        <mxCell id="IsUwps6RCUjrcTT9Gfew-2" value="&amp;lt;&amp;lt;include&amp;gt;&amp;gt;" style="text;html=1;align=center;verticalAlign=middle;resizable=0;points=[];labelBackgroundColor=#ffffff;" vertex="1" connectable="0" parent="w1fDr6GUNuQVsTf44wTi-1">
          <mxGeometry x="0.1404" relative="1" as="geometry">
            <mxPoint x="-11.76" as="offset"/>
          </mxGeometry>
        </mxCell>
        <mxCell id="mLac35AcepLWQvEcHW8x-0" value="&lt;span style=&quot;white-space: normal&quot;&gt;Wyświetlenie panelu alertów&lt;/span&gt;" style="rounded=1;whiteSpace=wrap;html=1;fillColor=#dae8fc;strokeColor=#6c8ebf;" vertex="1" parent="fzgI2RlwDscLZsqMx3vp-1">
          <mxGeometry x="-2310" y="-2549.9300000000003" width="120" height="60" as="geometry"/>
        </mxCell>
        <mxCell id="mLac35AcepLWQvEcHW8x-1" value="" style="ellipse;whiteSpace=wrap;html=1;" vertex="1" parent="fzgI2RlwDscLZsqMx3vp-1">
          <mxGeometry x="-2380" y="-2524.9300000000003" width="10" height="10" as="geometry"/>
        </mxCell>
        <mxCell id="mLac35AcepLWQvEcHW8x-2" value="" style="ellipse;whiteSpace=wrap;html=1;" vertex="1" parent="fzgI2RlwDscLZsqMx3vp-1">
          <mxGeometry x="-2380" y="-2420" width="10" height="10" as="geometry"/>
        </mxCell>
        <mxCell id="mLac35AcepLWQvEcHW8x-3" value="Wyświetlanie alertów/ostrzeżeń użytkowników" style="rounded=1;whiteSpace=wrap;html=1;dashed=1;fillColor=#dae8fc;strokeColor=#6c8ebf;" vertex="1" parent="fzgI2RlwDscLZsqMx3vp-1">
          <mxGeometry x="-2030" y="-2590" width="120" height="60" as="geometry"/>
        </mxCell>
        <mxCell id="mLac35AcepLWQvEcHW8x-4" value="Wyświetlanie systemowych alertów/ostrzeżeń" style="rounded=1;whiteSpace=wrap;html=1;dashed=1;fillColor=#dae8fc;strokeColor=#6c8ebf;" vertex="1" parent="fzgI2RlwDscLZsqMx3vp-1">
          <mxGeometry x="-2030" y="-2509.8500000000004" width="120" height="60" as="geometry"/>
        </mxCell>
        <mxCell id="mLac35AcepLWQvEcHW8x-6" value="" style="endArrow=none;dashed=1;html=1;exitX=0;exitY=0.5;exitDx=0;exitDy=0;entryX=0;entryY=0.5;entryDx=0;entryDy=0;startArrow=classic;startFill=1;" edge="1" parent="fzgI2RlwDscLZsqMx3vp-1" source="mLac35AcepLWQvEcHW8x-4">
          <mxGeometry width="50" height="50" relative="1" as="geometry">
            <mxPoint x="-2073.12" y="-2479.8500000000004" as="sourcePoint"/>
            <mxPoint x="-2190" y="-2504.9300000000003" as="targetPoint"/>
            <Array as="points">
              <mxPoint x="-2150" y="-2479.9300000000003"/>
              <mxPoint x="-2150" y="-2504.9300000000003"/>
            </Array>
          </mxGeometry>
        </mxCell>
        <mxCell id="OPuobtpusgs2Lb80zmIm-1" value="&amp;lt;&amp;lt;extend&amp;gt;&amp;gt;" style="text;html=1;align=center;verticalAlign=middle;resizable=0;points=[];labelBackgroundColor=#ffffff;" vertex="1" connectable="0" parent="mLac35AcepLWQvEcHW8x-6">
          <mxGeometry x="-0.17" y="3" relative="1" as="geometry">
            <mxPoint as="offset"/>
          </mxGeometry>
        </mxCell>
        <mxCell id="mLac35AcepLWQvEcHW8x-7" value="" style="endArrow=none;dashed=1;html=1;strokeColor=#000000;exitX=0;exitY=0.5;exitDx=0;exitDy=0;entryX=0;entryY=0.5;entryDx=0;entryDy=0;startArrow=classic;startFill=1;" edge="1" parent="fzgI2RlwDscLZsqMx3vp-1" source="mLac35AcepLWQvEcHW8x-3">
          <mxGeometry width="50" height="50" relative="1" as="geometry">
            <mxPoint x="-2073.12" y="-2560" as="sourcePoint"/>
            <mxPoint x="-2190" y="-2534.9300000000003" as="targetPoint"/>
            <Array as="points">
              <mxPoint x="-2150" y="-2559.9300000000003"/>
              <mxPoint x="-2150" y="-2534.9300000000003"/>
            </Array>
          </mxGeometry>
        </mxCell>
        <mxCell id="OPuobtpusgs2Lb80zmIm-0" value="&amp;lt;&amp;lt;extend&amp;gt;&amp;gt;" style="text;html=1;align=center;verticalAlign=middle;resizable=0;points=[];labelBackgroundColor=#ffffff;" vertex="1" connectable="0" parent="mLac35AcepLWQvEcHW8x-7">
          <mxGeometry x="-0.2264" y="1" relative="1" as="geometry">
            <mxPoint as="offset"/>
          </mxGeometry>
        </mxCell>
        <mxCell id="AVZ5gGeBELypZyMCoIGj-0" value="&lt;span style=&quot;white-space: normal&quot;&gt;Dodanie nowego alertu/ostrzeżenia&lt;/span&gt;" style="rounded=1;whiteSpace=wrap;html=1;fillColor=#dae8fc;strokeColor=#6c8ebf;" vertex="1" parent="fzgI2RlwDscLZsqMx3vp-1">
          <mxGeometry x="-2310" y="-2445" width="120" height="60" as="geometry"/>
        </mxCell>
        <mxCell id="np8qjMq6IQGLyrHTYtSZ-0" value="&lt;span style=&quot;white-space: normal&quot;&gt;Generowanie raportu prognozowego linii brzegowej&lt;/span&gt;" style="rounded=1;whiteSpace=wrap;html=1;fillColor=#dae8fc;strokeColor=#6c8ebf;" vertex="1" parent="fzgI2RlwDscLZsqMx3vp-1">
          <mxGeometry x="-2310" y="-2345" width="120" height="60" as="geometry"/>
        </mxCell>
        <mxCell id="np8qjMq6IQGLyrHTYtSZ-1" value="" style="ellipse;whiteSpace=wrap;html=1;" vertex="1" parent="fzgI2RlwDscLZsqMx3vp-1">
          <mxGeometry x="-2380" y="-2320" width="10" height="10" as="geometry"/>
        </mxCell>
        <UserObject label="&lt;h1&gt;&lt;font style=&quot;box-sizing: border-box ; margin-right: 4px ; font-size: 24px&quot;&gt;&lt;a href=&quot;https://github.com/WSEImacowsky/SDLC&quot;&gt;&lt;font color=&quot;#000000&quot;&gt;Natural Environment Analytical Tool&lt;/font&gt;&lt;/a&gt;&lt;/font&gt;&lt;/h1&gt;&lt;p&gt;&lt;font style=&quot;font-size: 18px&quot;&gt;Use cases diagram&lt;/font&gt;&lt;/p&gt;&lt;p&gt;Diagram przedstawiający przypadki użycia narzędzia &lt;i&gt;&lt;u&gt;&quot;Natural Environment Analytical Tool&quot;&lt;/u&gt; &lt;/i&gt;z udziałem użytkownika domyślnego (pracownika rządowego) oraz użytnika technicznego (administratora systemu).&lt;/p&gt;" id="teUg30KZs7jVTmNDIVNl-0">
          <mxCell style="text;html=1;strokeColor=none;fillColor=none;spacing=5;spacingTop=-20;whiteSpace=wrap;overflow=hidden;rounded=0;" vertex="1" parent="fzgI2RlwDscLZsqMx3vp-1">
            <mxGeometry x="-2390" y="-3250" width="540" height="140" as="geometry"/>
          </mxCell>
        </UserObject>
        <mxCell id="teUg30KZs7jVTmNDIVNl-1" value="&lt;span style=&quot;white-space: normal&quot;&gt;Dodanie nowego alertu bez konieczności akceptacji&lt;/span&gt;" style="rounded=1;whiteSpace=wrap;html=1;fillColor=#dae8fc;strokeColor=#6c8ebf;" vertex="1" parent="fzgI2RlwDscLZsqMx3vp-1">
          <mxGeometry x="-1840" y="-2449.85" width="120" height="60" as="geometry"/>
        </mxCell>
        <mxCell id="ej_kWNFfTnQl6cI-vUfg-0" value="" style="endArrow=classic;html=1;strokeColor=#000000;exitX=0.5;exitY=0.5;exitDx=0;exitDy=0;exitPerimeter=0;entryX=0;entryY=0.5;entryDx=0;entryDy=0;" edge="1" parent="fzgI2RlwDscLZsqMx3vp-1" source="fzgI2RlwDscLZsqMx3vp-12" target="fzgI2RlwDscLZsqMx3vp-63">
          <mxGeometry width="50" height="50" relative="1" as="geometry">
            <mxPoint x="-2510" y="-2590" as="sourcePoint"/>
            <mxPoint x="-2460" y="-2640" as="targetPoint"/>
          </mxGeometry>
        </mxCell>
        <mxCell id="ej_kWNFfTnQl6cI-vUfg-1" value="" style="endArrow=none;html=1;strokeColor=#000000;exitX=0.5;exitY=0;exitDx=0;exitDy=0;entryX=0.5;entryY=1;entryDx=0;entryDy=0;" edge="1" parent="fzgI2RlwDscLZsqMx3vp-1" source="fzgI2RlwDscLZsqMx3vp-63" target="fzgI2RlwDscLZsqMx3vp-61">
          <mxGeometry width="50" height="50" relative="1" as="geometry">
            <mxPoint x="-2370" y="-2730" as="sourcePoint"/>
            <mxPoint x="-2320" y="-2780" as="targetPoint"/>
          </mxGeometry>
        </mxCell>
        <mxCell id="ej_kWNFfTnQl6cI-vUfg-2" value="" style="endArrow=none;html=1;strokeColor=#000000;exitX=0.5;exitY=0;exitDx=0;exitDy=0;entryX=0.5;entryY=1;entryDx=0;entryDy=0;" edge="1" parent="fzgI2RlwDscLZsqMx3vp-1" source="fzgI2RlwDscLZsqMx3vp-61" target="fzgI2RlwDscLZsqMx3vp-60">
          <mxGeometry width="50" height="50" relative="1" as="geometry">
            <mxPoint x="-2370" y="-2850" as="sourcePoint"/>
            <mxPoint x="-2320" y="-2900" as="targetPoint"/>
          </mxGeometry>
        </mxCell>
        <mxCell id="ej_kWNFfTnQl6cI-vUfg-3" value="" style="endArrow=none;html=1;strokeColor=#000000;entryX=0.5;entryY=1;entryDx=0;entryDy=0;exitX=0.5;exitY=0;exitDx=0;exitDy=0;" edge="1" parent="fzgI2RlwDscLZsqMx3vp-1" source="fzgI2RlwDscLZsqMx3vp-60" target="fzgI2RlwDscLZsqMx3vp-58">
          <mxGeometry width="50" height="50" relative="1" as="geometry">
            <mxPoint x="-2380" y="-2940" as="sourcePoint"/>
            <mxPoint x="-2330" y="-2990" as="targetPoint"/>
          </mxGeometry>
        </mxCell>
        <mxCell id="ej_kWNFfTnQl6cI-vUfg-4" value="" style="endArrow=classic;html=1;strokeColor=#000000;exitX=1;exitY=0.5;exitDx=0;exitDy=0;entryX=0;entryY=0.5;entryDx=0;entryDy=0;" edge="1" parent="fzgI2RlwDscLZsqMx3vp-1" source="fzgI2RlwDscLZsqMx3vp-58" target="fzgI2RlwDscLZsqMx3vp-45">
          <mxGeometry width="50" height="50" relative="1" as="geometry">
            <mxPoint x="-2360" y="-2960" as="sourcePoint"/>
            <mxPoint x="-2310" y="-3010" as="targetPoint"/>
          </mxGeometry>
        </mxCell>
        <mxCell id="ej_kWNFfTnQl6cI-vUfg-5" value="" style="endArrow=classic;html=1;strokeColor=#000000;exitX=1;exitY=0.5;exitDx=0;exitDy=0;entryX=0;entryY=0.5;entryDx=0;entryDy=0;" edge="1" parent="fzgI2RlwDscLZsqMx3vp-1" source="fzgI2RlwDscLZsqMx3vp-60" target="fzgI2RlwDscLZsqMx3vp-46">
          <mxGeometry width="50" height="50" relative="1" as="geometry">
            <mxPoint x="-2370" y="-2940" as="sourcePoint"/>
            <mxPoint x="-2310" y="-2940" as="targetPoint"/>
          </mxGeometry>
        </mxCell>
        <mxCell id="ej_kWNFfTnQl6cI-vUfg-6" value="" style="endArrow=classic;html=1;strokeColor=#000000;exitX=1;exitY=0.5;exitDx=0;exitDy=0;entryX=0;entryY=0.5;entryDx=0;entryDy=0;" edge="1" parent="fzgI2RlwDscLZsqMx3vp-1" source="np8qjMq6IQGLyrHTYtSZ-1" target="np8qjMq6IQGLyrHTYtSZ-0">
          <mxGeometry width="50" height="50" relative="1" as="geometry">
            <mxPoint x="-2350" y="-2250" as="sourcePoint"/>
            <mxPoint x="-2290" y="-2250" as="targetPoint"/>
          </mxGeometry>
        </mxCell>
        <mxCell id="ej_kWNFfTnQl6cI-vUfg-7" value="" style="endArrow=classic;html=1;strokeColor=#000000;exitX=1;exitY=0.5;exitDx=0;exitDy=0;entryX=0;entryY=0.5;entryDx=0;entryDy=0;" edge="1" parent="fzgI2RlwDscLZsqMx3vp-1" source="fzgI2RlwDscLZsqMx3vp-64" target="fzgI2RlwDscLZsqMx3vp-55">
          <mxGeometry width="50" height="50" relative="1" as="geometry">
            <mxPoint x="-2360" y="-2580" as="sourcePoint"/>
            <mxPoint x="-2300" y="-2580" as="targetPoint"/>
          </mxGeometry>
        </mxCell>
        <mxCell id="ej_kWNFfTnQl6cI-vUfg-8" value="" style="endArrow=classic;html=1;strokeColor=#000000;exitX=1;exitY=0.5;exitDx=0;exitDy=0;entryX=0;entryY=0.5;entryDx=0;entryDy=0;" edge="1" parent="fzgI2RlwDscLZsqMx3vp-1" source="mLac35AcepLWQvEcHW8x-1" target="mLac35AcepLWQvEcHW8x-0">
          <mxGeometry width="50" height="50" relative="1" as="geometry">
            <mxPoint x="-2350" y="-2460" as="sourcePoint"/>
            <mxPoint x="-2290" y="-2460" as="targetPoint"/>
          </mxGeometry>
        </mxCell>
        <mxCell id="ej_kWNFfTnQl6cI-vUfg-9" value="" style="endArrow=classic;html=1;strokeColor=#000000;exitX=1;exitY=0.5;exitDx=0;exitDy=0;entryX=0;entryY=0.5;entryDx=0;entryDy=0;" edge="1" parent="fzgI2RlwDscLZsqMx3vp-1" source="mLac35AcepLWQvEcHW8x-2" target="AVZ5gGeBELypZyMCoIGj-0">
          <mxGeometry width="50" height="50" relative="1" as="geometry">
            <mxPoint x="-2360" y="-2360" as="sourcePoint"/>
            <mxPoint x="-2300" y="-2360" as="targetPoint"/>
          </mxGeometry>
        </mxCell>
        <mxCell id="ej_kWNFfTnQl6cI-vUfg-10" value="" style="endArrow=classic;html=1;strokeColor=#000000;exitX=1;exitY=0.5;exitDx=0;exitDy=0;entryX=0;entryY=0.5;entryDx=0;entryDy=0;" edge="1" parent="fzgI2RlwDscLZsqMx3vp-1" source="fzgI2RlwDscLZsqMx3vp-61" target="fzgI2RlwDscLZsqMx3vp-47">
          <mxGeometry width="50" height="50" relative="1" as="geometry">
            <mxPoint x="-2350" y="-2780" as="sourcePoint"/>
            <mxPoint x="-2290" y="-2780" as="targetPoint"/>
          </mxGeometry>
        </mxCell>
        <mxCell id="ej_kWNFfTnQl6cI-vUfg-11" value="" style="endArrow=classic;html=1;strokeColor=#000000;exitX=1;exitY=0.5;exitDx=0;exitDy=0;entryX=0;entryY=0.5;entryDx=0;entryDy=0;" edge="1" parent="fzgI2RlwDscLZsqMx3vp-1" source="fzgI2RlwDscLZsqMx3vp-63" target="QmS3Il2oa9-KOORidhjK-0">
          <mxGeometry width="50" height="50" relative="1" as="geometry">
            <mxPoint x="-2370" y="-2690" as="sourcePoint"/>
            <mxPoint x="-2310" y="-2690" as="targetPoint"/>
          </mxGeometry>
        </mxCell>
        <mxCell id="ej_kWNFfTnQl6cI-vUfg-12" value="" style="endArrow=none;html=1;strokeColor=#000000;entryX=0.5;entryY=1;entryDx=0;entryDy=0;exitX=0.5;exitY=0;exitDx=0;exitDy=0;" edge="1" parent="fzgI2RlwDscLZsqMx3vp-1" source="fzgI2RlwDscLZsqMx3vp-64" target="fzgI2RlwDscLZsqMx3vp-63">
          <mxGeometry width="50" height="50" relative="1" as="geometry">
            <mxPoint x="-2400" y="-2640" as="sourcePoint"/>
            <mxPoint x="-2350" y="-2690" as="targetPoint"/>
          </mxGeometry>
        </mxCell>
        <mxCell id="ej_kWNFfTnQl6cI-vUfg-13" value="" style="endArrow=none;html=1;strokeColor=#000000;entryX=0.5;entryY=1;entryDx=0;entryDy=0;exitX=0.5;exitY=0;exitDx=0;exitDy=0;" edge="1" parent="fzgI2RlwDscLZsqMx3vp-1" source="mLac35AcepLWQvEcHW8x-1" target="fzgI2RlwDscLZsqMx3vp-64">
          <mxGeometry width="50" height="50" relative="1" as="geometry">
            <mxPoint x="-2340" y="-2524.93" as="sourcePoint"/>
            <mxPoint x="-2340" y="-2614.93" as="targetPoint"/>
          </mxGeometry>
        </mxCell>
        <mxCell id="ej_kWNFfTnQl6cI-vUfg-14" value="" style="endArrow=none;html=1;strokeColor=#000000;entryX=0.5;entryY=1;entryDx=0;entryDy=0;exitX=0.5;exitY=0;exitDx=0;exitDy=0;" edge="1" parent="fzgI2RlwDscLZsqMx3vp-1" source="mLac35AcepLWQvEcHW8x-2" target="mLac35AcepLWQvEcHW8x-1">
          <mxGeometry width="50" height="50" relative="1" as="geometry">
            <mxPoint x="-2340" y="-2385" as="sourcePoint"/>
            <mxPoint x="-2340" y="-2475" as="targetPoint"/>
          </mxGeometry>
        </mxCell>
        <mxCell id="ej_kWNFfTnQl6cI-vUfg-15" value="" style="endArrow=none;html=1;strokeColor=#000000;entryX=0.5;entryY=1;entryDx=0;entryDy=0;exitX=0.5;exitY=0;exitDx=0;exitDy=0;" edge="1" parent="fzgI2RlwDscLZsqMx3vp-1" source="np8qjMq6IQGLyrHTYtSZ-1" target="mLac35AcepLWQvEcHW8x-2">
          <mxGeometry width="50" height="50" relative="1" as="geometry">
            <mxPoint x="-2340" y="-2270" as="sourcePoint"/>
            <mxPoint x="-2340" y="-2360" as="targetPoint"/>
          </mxGeometry>
        </mxCell>
        <mxCell id="ej_kWNFfTnQl6cI-vUfg-16" value="&lt;span style=&quot;white-space: normal&quot;&gt;Odświeżanie źródła danych&lt;/span&gt;" style="rounded=1;whiteSpace=wrap;html=1;fillColor=#d5e8d4;strokeColor=#82b366;" vertex="1" parent="fzgI2RlwDscLZsqMx3vp-1">
          <mxGeometry x="-1840" y="-2750" width="120" height="60" as="geometry"/>
        </mxCell>
        <mxCell id="ej_kWNFfTnQl6cI-vUfg-17" value="&lt;span style=&quot;white-space: normal&quot;&gt;Akceptacja rekomendacji użytkownika&lt;/span&gt;" style="rounded=1;whiteSpace=wrap;html=1;fillColor=#dae8fc;strokeColor=#6c8ebf;" vertex="1" parent="fzgI2RlwDscLZsqMx3vp-1">
          <mxGeometry x="-1840" y="-2650" width="120" height="60" as="geometry"/>
        </mxCell>
        <mxCell id="ej_kWNFfTnQl6cI-vUfg-20" value="" style="ellipse;whiteSpace=wrap;html=1;" vertex="1" parent="fzgI2RlwDscLZsqMx3vp-1">
          <mxGeometry x="-1660" y="-2725" width="10" height="10" as="geometry"/>
        </mxCell>
        <mxCell id="ej_kWNFfTnQl6cI-vUfg-21" value="" style="endArrow=classic;html=1;strokeColor=#000000;exitX=1;exitY=0.5;exitDx=0;exitDy=0;entryX=0;entryY=0.5;entryDx=0;entryDy=0;" edge="1" parent="fzgI2RlwDscLZsqMx3vp-1">
          <mxGeometry width="50" height="50" relative="1" as="geometry">
            <mxPoint x="-1660" y="-2720.59" as="sourcePoint"/>
            <mxPoint x="-1720" y="-2720.59" as="targetPoint"/>
          </mxGeometry>
        </mxCell>
        <mxCell id="ej_kWNFfTnQl6cI-vUfg-22" value="" style="endArrow=classic;html=1;strokeColor=#000000;exitX=0.5;exitY=0.5;exitDx=0;exitDy=0;exitPerimeter=0;entryX=1;entryY=0.5;entryDx=0;entryDy=0;" edge="1" parent="fzgI2RlwDscLZsqMx3vp-1" source="fzgI2RlwDscLZsqMx3vp-11" target="ej_kWNFfTnQl6cI-vUfg-20">
          <mxGeometry width="50" height="50" relative="1" as="geometry">
            <mxPoint x="-1550" y="-2580" as="sourcePoint"/>
            <mxPoint x="-1500" y="-2630" as="targetPoint"/>
          </mxGeometry>
        </mxCell>
        <mxCell id="ej_kWNFfTnQl6cI-vUfg-23" value="" style="ellipse;whiteSpace=wrap;html=1;" vertex="1" parent="fzgI2RlwDscLZsqMx3vp-1">
          <mxGeometry x="-1660" y="-2625" width="10" height="10" as="geometry"/>
        </mxCell>
        <mxCell id="ej_kWNFfTnQl6cI-vUfg-24" value="" style="ellipse;whiteSpace=wrap;html=1;" vertex="1" parent="fzgI2RlwDscLZsqMx3vp-1">
          <mxGeometry x="-1660" y="-2424.85" width="10" height="10" as="geometry"/>
        </mxCell>
        <mxCell id="ej_kWNFfTnQl6cI-vUfg-25" value="" style="endArrow=classic;html=1;strokeColor=#000000;entryX=1;entryY=0.5;entryDx=0;entryDy=0;exitX=0;exitY=0.5;exitDx=0;exitDy=0;" edge="1" parent="fzgI2RlwDscLZsqMx3vp-1" source="ej_kWNFfTnQl6cI-vUfg-23" target="ej_kWNFfTnQl6cI-vUfg-17">
          <mxGeometry width="50" height="50" relative="1" as="geometry">
            <mxPoint x="-1680" y="-2520" as="sourcePoint"/>
            <mxPoint x="-1630" y="-2570" as="targetPoint"/>
          </mxGeometry>
        </mxCell>
        <mxCell id="ej_kWNFfTnQl6cI-vUfg-26" value="" style="endArrow=classic;html=1;strokeColor=#000000;exitX=0;exitY=0.5;exitDx=0;exitDy=0;entryX=1;entryY=0.5;entryDx=0;entryDy=0;" edge="1" parent="fzgI2RlwDscLZsqMx3vp-1" source="ej_kWNFfTnQl6cI-vUfg-24" target="teUg30KZs7jVTmNDIVNl-1">
          <mxGeometry width="50" height="50" relative="1" as="geometry">
            <mxPoint x="-1700" y="-2470" as="sourcePoint"/>
            <mxPoint x="-1650" y="-2520" as="targetPoint"/>
          </mxGeometry>
        </mxCell>
        <mxCell id="ej_kWNFfTnQl6cI-vUfg-27" value="" style="endArrow=none;html=1;strokeColor=#000000;entryX=0.5;entryY=1;entryDx=0;entryDy=0;exitX=0.5;exitY=0;exitDx=0;exitDy=0;" edge="1" parent="fzgI2RlwDscLZsqMx3vp-1" source="ej_kWNFfTnQl6cI-vUfg-23" target="ej_kWNFfTnQl6cI-vUfg-20">
          <mxGeometry width="50" height="50" relative="1" as="geometry">
            <mxPoint x="-1690" y="-2630" as="sourcePoint"/>
            <mxPoint x="-1640" y="-2680" as="targetPoint"/>
          </mxGeometry>
        </mxCell>
        <mxCell id="u_5F1Ot7-QSNe7qoKyk2-0" value="Jakub Maszkowski" style="rounded=1;whiteSpace=wrap;html=1;fillColor=#d5e8d4;strokeColor=#82b366;" vertex="1" parent="fzgI2RlwDscLZsqMx3vp-1">
          <mxGeometry x="-1720" y="-3250" width="110" height="29.74" as="geometry"/>
        </mxCell>
        <mxCell id="u_5F1Ot7-QSNe7qoKyk2-1" value="Karol Szarek" style="rounded=1;whiteSpace=wrap;html=1;fillColor=#dae8fc;strokeColor=#6c8ebf;" vertex="1" parent="fzgI2RlwDscLZsqMx3vp-1">
          <mxGeometry x="-1720" y="-3209.48" width="110" height="29.74" as="geometry"/>
        </mxCell>
        <mxCell id="u_5F1Ot7-QSNe7qoKyk2-2" value="Maciej Mleczko" style="rounded=1;whiteSpace=wrap;html=1;fillColor=#fff2cc;strokeColor=#d6b656;" vertex="1" parent="fzgI2RlwDscLZsqMx3vp-1">
          <mxGeometry x="-1720" y="-3170" width="110" height="29.74" as="geometry"/>
        </mxCell>
        <mxCell id="eWxJL53YsTrYbCobttye-2" value="Zarządzanie paczkami danych udostępnianych przez API" style="rounded=1;whiteSpace=wrap;html=1;fillColor=#fff2cc;strokeColor=#d6b656;" vertex="1" parent="fzgI2RlwDscLZsqMx3vp-1">
          <mxGeometry x="-1840" y="-2550" width="120" height="60" as="geometry"/>
        </mxCell>
        <mxCell id="eWxJL53YsTrYbCobttye-3" value="" style="ellipse;whiteSpace=wrap;html=1;" vertex="1" parent="fzgI2RlwDscLZsqMx3vp-1">
          <mxGeometry x="-1660" y="-2524.93" width="10" height="10" as="geometry"/>
        </mxCell>
        <mxCell id="eWxJL53YsTrYbCobttye-5" value="" style="endArrow=none;html=1;strokeColor=#000000;entryX=0.5;entryY=1;entryDx=0;entryDy=0;exitX=0.5;exitY=0;exitDx=0;exitDy=0;" edge="1" parent="fzgI2RlwDscLZsqMx3vp-1" source="eWxJL53YsTrYbCobttye-3" target="ej_kWNFfTnQl6cI-vUfg-23">
          <mxGeometry width="50" height="50" relative="1" as="geometry">
            <mxPoint x="-1655" y="-2530" as="sourcePoint"/>
            <mxPoint x="-1640" y="-2590" as="targetPoint"/>
          </mxGeometry>
        </mxCell>
        <mxCell id="eWxJL53YsTrYbCobttye-6" value="" style="endArrow=none;html=1;strokeColor=#000000;entryX=0.5;entryY=1;entryDx=0;entryDy=0;exitX=0.5;exitY=0;exitDx=0;exitDy=0;" edge="1" parent="fzgI2RlwDscLZsqMx3vp-1" source="ej_kWNFfTnQl6cI-vUfg-24" target="eWxJL53YsTrYbCobttye-3">
          <mxGeometry width="50" height="50" relative="1" as="geometry">
            <mxPoint x="-1680" y="-2430" as="sourcePoint"/>
            <mxPoint x="-1630" y="-2480" as="targetPoint"/>
          </mxGeometry>
        </mxCell>
        <mxCell id="eWxJL53YsTrYbCobttye-7" value="" style="endArrow=classic;html=1;strokeColor=#000000;entryX=1;entryY=0.5;entryDx=0;entryDy=0;exitX=0;exitY=0.5;exitDx=0;exitDy=0;" edge="1" parent="fzgI2RlwDscLZsqMx3vp-1" source="eWxJL53YsTrYbCobttye-3" target="eWxJL53YsTrYbCobttye-2">
          <mxGeometry width="50" height="50" relative="1" as="geometry">
            <mxPoint x="-1710" y="-2450" as="sourcePoint"/>
            <mxPoint x="-1660" y="-2500" as="targetPoint"/>
          </mxGeometry>
        </mxCell>
        <mxCell id="eWxJL53YsTrYbCobttye-8" value="Zarządzanie sprawozdaniami z prognoz" style="rounded=1;whiteSpace=wrap;html=1;fillColor=#fff2cc;strokeColor=#d6b656;" vertex="1" parent="fzgI2RlwDscLZsqMx3vp-1">
          <mxGeometry x="-2310" y="-2250" width="120" height="60" as="geometry"/>
        </mxCell>
        <mxCell id="eWxJL53YsTrYbCobttye-9" value="Zmiana sposobu prezentacji danych" style="rounded=1;whiteSpace=wrap;html=1;fillColor=#fff2cc;strokeColor=#d6b656;" vertex="1" parent="fzgI2RlwDscLZsqMx3vp-1">
          <mxGeometry x="-2310" y="-2150" width="120" height="60" as="geometry"/>
        </mxCell>
        <mxCell id="eWxJL53YsTrYbCobttye-10" value="Dane satelitarne prezentowane w postaci interaktywnych raportów" style="rounded=1;whiteSpace=wrap;html=1;fillColor=#fff2cc;strokeColor=#d6b656;" vertex="1" parent="fzgI2RlwDscLZsqMx3vp-1">
          <mxGeometry x="-2310" y="-1950" width="120" height="70" as="geometry"/>
        </mxCell>
        <mxCell id="eWxJL53YsTrYbCobttye-11" value="" style="ellipse;whiteSpace=wrap;html=1;" vertex="1" parent="fzgI2RlwDscLZsqMx3vp-1">
          <mxGeometry x="-2380" y="-2225" width="10" height="10" as="geometry"/>
        </mxCell>
        <mxCell id="eWxJL53YsTrYbCobttye-12" value="" style="ellipse;whiteSpace=wrap;html=1;" vertex="1" parent="fzgI2RlwDscLZsqMx3vp-1">
          <mxGeometry x="-2380" y="-2125" width="10" height="10" as="geometry"/>
        </mxCell>
        <mxCell id="eWxJL53YsTrYbCobttye-13" value="" style="ellipse;whiteSpace=wrap;html=1;" vertex="1" parent="fzgI2RlwDscLZsqMx3vp-1">
          <mxGeometry x="-2380" y="-2020" width="10" height="10" as="geometry"/>
        </mxCell>
        <mxCell id="eWxJL53YsTrYbCobttye-14" value="" style="ellipse;whiteSpace=wrap;html=1;" vertex="1" parent="fzgI2RlwDscLZsqMx3vp-1">
          <mxGeometry x="-2380" y="-1920" width="10" height="10" as="geometry"/>
        </mxCell>
        <mxCell id="eWxJL53YsTrYbCobttye-15" value="Udostępnianie raportów innym użytkownikom" style="rounded=1;whiteSpace=wrap;html=1;fillColor=#fff2cc;strokeColor=#d6b656;" vertex="1" parent="fzgI2RlwDscLZsqMx3vp-1">
          <mxGeometry x="-2310" y="-2045" width="120" height="60" as="geometry"/>
        </mxCell>
        <mxCell id="eWxJL53YsTrYbCobttye-16" value="" style="endArrow=none;html=1;strokeColor=#000000;entryX=0.5;entryY=1;entryDx=0;entryDy=0;exitX=0.5;exitY=0;exitDx=0;exitDy=0;" edge="1" parent="fzgI2RlwDscLZsqMx3vp-1" source="eWxJL53YsTrYbCobttye-11" target="np8qjMq6IQGLyrHTYtSZ-1">
          <mxGeometry width="50" height="50" relative="1" as="geometry">
            <mxPoint x="-2420" y="-2230" as="sourcePoint"/>
            <mxPoint x="-2370" y="-2280" as="targetPoint"/>
          </mxGeometry>
        </mxCell>
        <mxCell id="eWxJL53YsTrYbCobttye-17" value="" style="endArrow=none;html=1;strokeColor=#000000;exitX=0.5;exitY=0;exitDx=0;exitDy=0;entryX=0.5;entryY=1;entryDx=0;entryDy=0;" edge="1" parent="fzgI2RlwDscLZsqMx3vp-1" source="eWxJL53YsTrYbCobttye-12" target="eWxJL53YsTrYbCobttye-11">
          <mxGeometry width="50" height="50" relative="1" as="geometry">
            <mxPoint x="-2410" y="-2220" as="sourcePoint"/>
            <mxPoint x="-2360" y="-2270" as="targetPoint"/>
          </mxGeometry>
        </mxCell>
        <mxCell id="eWxJL53YsTrYbCobttye-18" value="" style="endArrow=none;html=1;strokeColor=#000000;entryX=0.5;entryY=1;entryDx=0;entryDy=0;exitX=0.5;exitY=0;exitDx=0;exitDy=0;" edge="1" parent="fzgI2RlwDscLZsqMx3vp-1" source="eWxJL53YsTrYbCobttye-13" target="eWxJL53YsTrYbCobttye-12">
          <mxGeometry width="50" height="50" relative="1" as="geometry">
            <mxPoint x="-2400" y="-2030" as="sourcePoint"/>
            <mxPoint x="-2350" y="-2080" as="targetPoint"/>
          </mxGeometry>
        </mxCell>
        <mxCell id="eWxJL53YsTrYbCobttye-19" value="" style="endArrow=none;html=1;strokeColor=#000000;entryX=0.5;entryY=1;entryDx=0;entryDy=0;exitX=0.5;exitY=0;exitDx=0;exitDy=0;" edge="1" parent="fzgI2RlwDscLZsqMx3vp-1" source="eWxJL53YsTrYbCobttye-14" target="eWxJL53YsTrYbCobttye-13">
          <mxGeometry width="50" height="50" relative="1" as="geometry">
            <mxPoint x="-2420" y="-1935" as="sourcePoint"/>
            <mxPoint x="-2370" y="-1985" as="targetPoint"/>
          </mxGeometry>
        </mxCell>
        <mxCell id="eWxJL53YsTrYbCobttye-21" value="" style="endArrow=classic;html=1;strokeColor=#000000;entryX=0;entryY=0.5;entryDx=0;entryDy=0;exitX=1;exitY=0.5;exitDx=0;exitDy=0;" edge="1" parent="fzgI2RlwDscLZsqMx3vp-1" source="eWxJL53YsTrYbCobttye-14" target="eWxJL53YsTrYbCobttye-10">
          <mxGeometry width="50" height="50" relative="1" as="geometry">
            <mxPoint x="-2390" y="-1840" as="sourcePoint"/>
            <mxPoint x="-2340" y="-1890" as="targetPoint"/>
          </mxGeometry>
        </mxCell>
        <mxCell id="eWxJL53YsTrYbCobttye-22" value="" style="endArrow=classic;html=1;strokeColor=#000000;entryX=0;entryY=0.5;entryDx=0;entryDy=0;exitX=1;exitY=0.5;exitDx=0;exitDy=0;" edge="1" parent="fzgI2RlwDscLZsqMx3vp-1" source="eWxJL53YsTrYbCobttye-13" target="eWxJL53YsTrYbCobttye-15">
          <mxGeometry width="50" height="50" relative="1" as="geometry">
            <mxPoint x="-2370" y="-1960" as="sourcePoint"/>
            <mxPoint x="-2320" y="-2010" as="targetPoint"/>
          </mxGeometry>
        </mxCell>
        <mxCell id="eWxJL53YsTrYbCobttye-23" value="" style="endArrow=classic;html=1;strokeColor=#000000;entryX=0;entryY=0.5;entryDx=0;entryDy=0;exitX=1;exitY=0.5;exitDx=0;exitDy=0;" edge="1" parent="fzgI2RlwDscLZsqMx3vp-1" source="eWxJL53YsTrYbCobttye-12" target="eWxJL53YsTrYbCobttye-9">
          <mxGeometry width="50" height="50" relative="1" as="geometry">
            <mxPoint x="-2380" y="-2045" as="sourcePoint"/>
            <mxPoint x="-2330" y="-2095" as="targetPoint"/>
          </mxGeometry>
        </mxCell>
        <mxCell id="eWxJL53YsTrYbCobttye-24" value="" style="endArrow=classic;html=1;strokeColor=#000000;entryX=0;entryY=0.5;entryDx=0;entryDy=0;exitX=1;exitY=0.5;exitDx=0;exitDy=0;" edge="1" parent="fzgI2RlwDscLZsqMx3vp-1" source="eWxJL53YsTrYbCobttye-11" target="eWxJL53YsTrYbCobttye-8">
          <mxGeometry width="50" height="50" relative="1" as="geometry">
            <mxPoint x="-2410" y="-2150" as="sourcePoint"/>
            <mxPoint x="-2360" y="-2200" as="targetPoint"/>
          </mxGeometry>
        </mxCell>
      </root>
    </mxGraphModel>
  </diagram>
</mxfile>
